<svg width="25" height="25" viewBox="0 0 25 25" fill="none" xmlns="http://www.w3.org/2000/svg">
<path d="M3.10944 6.52954H5.10944H21.1094" stroke="black" stroke-linecap="round" stroke-linejoin="round"/>
<path d="M19.1094 6.52954V20.5295C19.1094 21.06 18.8987 21.5687 18.5236 21.9438C18.1486 22.3188 17.6399 22.5295 17.1094 22.5295H7.10944C6.579 22.5295 6.0703 22.3188 5.69522 21.9438C5.32015 21.5687 5.10944 21.06 5.10944 20.5295V6.52954M8.10944 6.52954V4.52954C8.10944 3.99911 8.32015 3.4904 8.69522 3.11533C9.0703 2.74025 9.579 2.52954 10.1094 2.52954H14.1094C14.6399 2.52954 15.1486 2.74025 15.5236 3.11533C15.8987 3.4904 16.1094 3.99911 16.1094 4.52954V6.52954" stroke="black" stroke-linecap="round" stroke-linejoin="round"/>
</svg>
