<svg xmlns="http://www.w3.org/2000/svg" width="22" height="21" viewBox="0 0 22 21" fill="none">
<path d="M16 1.5C16.2626 1.23735 16.5744 1.02901 16.9176 0.886871C17.2608 0.744729 17.6286 0.67157 18 0.67157C18.3714 0.67157 18.7392 0.744729 19.0824 0.886871C19.4256 1.02901 19.7374 1.23735 20 1.5C20.2626 1.76264 20.471 2.07444 20.6131 2.4176C20.7553 2.76077 20.8284 3.12856 20.8284 3.5C20.8284 3.87143 20.7553 4.23923 20.6131 4.58239C20.471 4.92555 20.2626 5.23735 20 5.5L6.5 19L1 20.5L2.5 15L16 1.5Z" stroke="black" stroke-linecap="round" stroke-linejoin="round"/>
</svg>